<svg width="32" height="32" viewBox="0 0 32 32" fill="none" xmlns="http://www.w3.org/2000/svg">
<path d="M27 9L25.2081 26.2337C25.1509 26.7203 24.917 27.169 24.5509 27.4946C24.1847 27.8201 23.7118 28 23.2219 28H8.77875C8.2888 28 7.8159 27.8201 7.44977 27.4946C7.08365 27.169 6.84976 26.7203 6.7925 26.2337L5 9" stroke="#232321" stroke-width="1.5" stroke-linecap="round" stroke-linejoin="round"/>
<path d="M29 4H3C2.44772 4 2 4.44772 2 5V8C2 8.55228 2.44772 9 3 9H29C29.5523 9 30 8.55228 30 8V5C30 4.44772 29.5523 4 29 4Z" stroke="#232321" stroke-width="1.5" stroke-linecap="round" stroke-linejoin="round"/>
<path d="M19.5 15L12.5 22M19.5 22L12.5 15" stroke="#232321" stroke-width="1.5" stroke-linecap="round" stroke-linejoin="round"/>
</svg>
